<?xml version="1.0" standalone="no"?>
<!DOCTYPE svg PUBLIC "-//W3C//DTD SVG 20010904//EN"
 "http://www.w3.org/TR/2001/REC-SVG-20010904/DTD/svg10.dtd">
<svg version="1.0" xmlns="http://www.w3.org/2000/svg"
 width="110.000000pt" height="26.000000pt" viewBox="0 0 986.000000 304.000000"
 preserveAspectRatio="xMidYMid meet">

<g transform="translate(0.000000,304.000000) scale(0.100000,-0.100000)"
fill="#FFF" stroke="none">
<path d="M4272 1418 l3 -763 158 -3 157 -3 0 176 c0 96 3 175 7 175 4 0 86
-79 183 -175 l176 -175 200 0 199 0 -238 238 c-130 130 -237 242 -237 247 0 5
93 103 207 217 l208 208 -200 0 -200 0 -145 -145 c-80 -80 -148 -145 -152
-145 -5 0 -8 205 -8 455 l0 455 -160 0 -160 0 2 -762z"/>
<path d="M1870 1415 l0 -755 160 0 160 0 0 755 0 755 -160 0 -160 0 0 -755z"/>
<path d="M1050 2140 c-201 -20 -381 -109 -522 -259 -113 -121 -164 -220 -187
-362 -34 -208 16 -408 145 -576 74 -96 159 -164 279 -223 139 -68 204 -83 355
-84 132 -1 177 7 326 55 106 34 129 54 120 100 -9 46 -80 191 -104 213 -21 18
-24 18 -142 -13 -180 -46 -265 -40 -400 29 -53 27 -140 109 -172 160 -33 55
-58 142 -58 204 0 204 149 377 364 423 89 19 151 12 283 -28 56 -18 107 -29
115 -27 18 7 108 190 115 234 8 51 -15 70 -138 108 -139 44 -254 58 -379 46z"/>
<path d="M2645 2103 c-98 -52 -130 -144 -84 -241 28 -57 96 -102 153 -102 84
1 178 71 191 144 13 66 -43 168 -108 199 -44 21 -113 21 -152 0z"/>
<path d="M7833 1469 c-346 -869 -314 -781 -298 -798 10 -10 52 -14 171 -15
l158 -1 52 135 c43 111 56 135 76 141 13 3 140 8 283 10 l259 4 51 -134 c60
-161 47 -153 252 -149 122 3 138 5 141 20 2 10 -44 138 -103 285 -166 417
-456 1127 -464 1136 -4 4 -77 10 -162 14 l-155 6 -261 -654z m480 51 c89 -237
92 -249 80 -261 -7 -7 -68 -14 -157 -17 l-145 -5 71 184 c38 101 75 199 81
216 6 18 11 32 13 30 1 -1 27 -67 57 -147z"/>
<path d="M9200 1390 l0 -730 175 0 175 0 0 730 0 730 -175 0 -175 0 0 -730z"/>
<path d="M3610 1580 c-207 -25 -383 -184 -420 -380 -14 -73 -13 -116 5 -185
36 -138 127 -252 257 -321 82 -43 205 -68 288 -59 67 8 200 42 217 57 21 17
15 53 -18 123 -42 90 -53 96 -160 88 -47 -3 -98 -3 -113 1 -38 9 -96 65 -117
111 -25 54 -25 157 0 212 37 81 154 121 263 89 31 -9 61 -16 68 -16 12 0 100
177 100 202 0 56 -201 98 -370 78z"/>
<path d="M6080 1579 c-25 -5 -76 -24 -113 -44 -78 -40 -97 -43 -97 -15 0 32
-32 40 -164 40 l-126 0 0 -455 0 -455 144 0 144 0 4 263 c3 257 4 265 28 312
35 66 105 115 168 115 52 0 104 -29 122 -70 19 -40 29 -189 30 -413 l0 -208
158 3 157 3 0 330 c0 378 -3 398 -70 473 -54 60 -125 99 -212 117 -75 16 -107
17 -173 4z"/>
<path d="M2570 1110 l0 -450 160 0 160 0 0 450 0 450 -160 0 -160 0 0 -450z"/>
<path d="M7020 1010 c-79 -37 -130 -99 -130 -159 0 -46 37 -134 68 -164 83
-80 205 -72 280 19 56 67 66 142 30 214 -50 97 -153 134 -248 90z"/>
</g>
</svg>
